<mxfile host="app.diagrams.net" modified="2021-03-09T20:28:18.018Z" agent="5.0 (Windows NT 10.0; Win64; x64) AppleWebKit/537.36 (KHTML, like Gecko) Chrome/89.0.4389.72 Safari/537.36 Edg/89.0.774.45" etag="hgXj7FNCFw-eJyhsoqyU" version="14.4.6" type="github">
  <diagram id="gwP9SL3oENR1mWQT_B8B" name="Page-1">
    <mxGraphModel dx="1141" dy="579" grid="1" gridSize="10" guides="1" tooltips="1" connect="1" arrows="1" fold="1" page="1" pageScale="1" pageWidth="850" pageHeight="1100" math="0" shadow="0">
      <root>
        <mxCell id="0" />
        <mxCell id="1" parent="0" />
        <mxCell id="Hw76VazDHy7zFGiPtYa--6" style="rounded=0;orthogonalLoop=1;jettySize=auto;html=1;exitX=0.5;exitY=0.5;exitDx=0;exitDy=0;exitPerimeter=0;entryX=0;entryY=0.5;entryDx=0;entryDy=0;endArrow=none;endFill=0;" edge="1" parent="1" source="Hw76VazDHy7zFGiPtYa--1" target="Hw76VazDHy7zFGiPtYa--4">
          <mxGeometry relative="1" as="geometry" />
        </mxCell>
        <mxCell id="Hw76VazDHy7zFGiPtYa--7" style="rounded=0;orthogonalLoop=1;jettySize=auto;html=1;exitX=0.5;exitY=0.5;exitDx=0;exitDy=0;exitPerimeter=0;entryX=0;entryY=0.5;entryDx=0;entryDy=0;endArrow=none;endFill=0;" edge="1" parent="1" source="Hw76VazDHy7zFGiPtYa--1" target="Hw76VazDHy7zFGiPtYa--5">
          <mxGeometry relative="1" as="geometry" />
        </mxCell>
        <mxCell id="Hw76VazDHy7zFGiPtYa--1" value="Refering Dr." style="shape=umlActor;verticalLabelPosition=bottom;verticalAlign=top;html=1;outlineConnect=0;" vertex="1" parent="1">
          <mxGeometry x="140" y="120" width="30" height="60" as="geometry" />
        </mxCell>
        <mxCell id="Hw76VazDHy7zFGiPtYa--4" value="Create Order" style="ellipse;whiteSpace=wrap;html=1;" vertex="1" parent="1">
          <mxGeometry x="390" y="140" width="90" height="30" as="geometry" />
        </mxCell>
        <mxCell id="Hw76VazDHy7zFGiPtYa--5" value="View Order" style="ellipse;whiteSpace=wrap;html=1;" vertex="1" parent="1">
          <mxGeometry x="390" y="200" width="90" height="30" as="geometry" />
        </mxCell>
        <mxCell id="Hw76VazDHy7zFGiPtYa--10" style="edgeStyle=none;rounded=0;orthogonalLoop=1;jettySize=auto;html=1;exitX=0.5;exitY=0.5;exitDx=0;exitDy=0;exitPerimeter=0;entryX=0;entryY=0.5;entryDx=0;entryDy=0;endArrow=none;endFill=0;" edge="1" parent="1" source="Hw76VazDHy7zFGiPtYa--8" target="Hw76VazDHy7zFGiPtYa--9">
          <mxGeometry relative="1" as="geometry" />
        </mxCell>
        <mxCell id="Hw76VazDHy7zFGiPtYa--22" style="edgeStyle=none;rounded=0;orthogonalLoop=1;jettySize=auto;html=1;exitX=0.5;exitY=0.5;exitDx=0;exitDy=0;exitPerimeter=0;entryX=0;entryY=1;entryDx=0;entryDy=0;endArrow=none;endFill=0;" edge="1" parent="1" source="Hw76VazDHy7zFGiPtYa--8" target="Hw76VazDHy7zFGiPtYa--5">
          <mxGeometry relative="1" as="geometry" />
        </mxCell>
        <mxCell id="Hw76VazDHy7zFGiPtYa--27" style="edgeStyle=none;rounded=0;orthogonalLoop=1;jettySize=auto;html=1;exitX=0.5;exitY=0.5;exitDx=0;exitDy=0;exitPerimeter=0;entryX=0;entryY=0.5;entryDx=0;entryDy=0;endArrow=none;endFill=0;" edge="1" parent="1" source="Hw76VazDHy7zFGiPtYa--8" target="Hw76VazDHy7zFGiPtYa--24">
          <mxGeometry relative="1" as="geometry" />
        </mxCell>
        <mxCell id="Hw76VazDHy7zFGiPtYa--28" style="edgeStyle=none;rounded=0;orthogonalLoop=1;jettySize=auto;html=1;exitX=0.5;exitY=0.5;exitDx=0;exitDy=0;exitPerimeter=0;entryX=0;entryY=0.5;entryDx=0;entryDy=0;endArrow=none;endFill=0;" edge="1" parent="1" source="Hw76VazDHy7zFGiPtYa--8" target="Hw76VazDHy7zFGiPtYa--17">
          <mxGeometry relative="1" as="geometry" />
        </mxCell>
        <mxCell id="Hw76VazDHy7zFGiPtYa--47" style="edgeStyle=none;rounded=0;orthogonalLoop=1;jettySize=auto;html=1;exitX=0.5;exitY=0.5;exitDx=0;exitDy=0;exitPerimeter=0;entryX=0;entryY=0.5;entryDx=0;entryDy=0;endArrow=none;endFill=0;" edge="1" parent="1" source="Hw76VazDHy7zFGiPtYa--8" target="Hw76VazDHy7zFGiPtYa--41">
          <mxGeometry relative="1" as="geometry" />
        </mxCell>
        <mxCell id="Hw76VazDHy7zFGiPtYa--48" style="edgeStyle=none;rounded=0;orthogonalLoop=1;jettySize=auto;html=1;exitX=0.5;exitY=0.5;exitDx=0;exitDy=0;exitPerimeter=0;entryX=0;entryY=0.5;entryDx=0;entryDy=0;endArrow=none;endFill=0;" edge="1" parent="1" source="Hw76VazDHy7zFGiPtYa--8" target="Hw76VazDHy7zFGiPtYa--42">
          <mxGeometry relative="1" as="geometry" />
        </mxCell>
        <mxCell id="Hw76VazDHy7zFGiPtYa--8" value="Radiologist" style="shape=umlActor;verticalLabelPosition=bottom;verticalAlign=top;html=1;outlineConnect=0;" vertex="1" parent="1">
          <mxGeometry x="140" y="280" width="30" height="60" as="geometry" />
        </mxCell>
        <mxCell id="Hw76VazDHy7zFGiPtYa--9" value="Make Assessment" style="ellipse;whiteSpace=wrap;html=1;" vertex="1" parent="1">
          <mxGeometry x="425" y="290" width="90" height="40" as="geometry" />
        </mxCell>
        <mxCell id="Hw76VazDHy7zFGiPtYa--15" style="edgeStyle=none;rounded=0;orthogonalLoop=1;jettySize=auto;html=1;exitX=0.5;exitY=0.5;exitDx=0;exitDy=0;exitPerimeter=0;entryX=0;entryY=0.5;entryDx=0;entryDy=0;endArrow=none;endFill=0;" edge="1" parent="1" source="Hw76VazDHy7zFGiPtYa--12" target="Hw76VazDHy7zFGiPtYa--14">
          <mxGeometry relative="1" as="geometry" />
        </mxCell>
        <mxCell id="Hw76VazDHy7zFGiPtYa--25" style="edgeStyle=none;rounded=0;orthogonalLoop=1;jettySize=auto;html=1;exitX=0.5;exitY=0.5;exitDx=0;exitDy=0;exitPerimeter=0;entryX=0;entryY=1;entryDx=0;entryDy=0;endArrow=none;endFill=0;" edge="1" parent="1" source="Hw76VazDHy7zFGiPtYa--12" target="Hw76VazDHy7zFGiPtYa--5">
          <mxGeometry relative="1" as="geometry" />
        </mxCell>
        <mxCell id="Hw76VazDHy7zFGiPtYa--26" style="edgeStyle=none;rounded=0;orthogonalLoop=1;jettySize=auto;html=1;exitX=0.5;exitY=0.5;exitDx=0;exitDy=0;exitPerimeter=0;entryX=0;entryY=0.5;entryDx=0;entryDy=0;endArrow=none;endFill=0;" edge="1" parent="1" source="Hw76VazDHy7zFGiPtYa--12" target="Hw76VazDHy7zFGiPtYa--24">
          <mxGeometry relative="1" as="geometry" />
        </mxCell>
        <mxCell id="Hw76VazDHy7zFGiPtYa--29" style="edgeStyle=none;rounded=0;orthogonalLoop=1;jettySize=auto;html=1;exitX=0.5;exitY=0.5;exitDx=0;exitDy=0;exitPerimeter=0;entryX=0;entryY=0.5;entryDx=0;entryDy=0;endArrow=none;endFill=0;" edge="1" parent="1" source="Hw76VazDHy7zFGiPtYa--12" target="Hw76VazDHy7zFGiPtYa--17">
          <mxGeometry relative="1" as="geometry" />
        </mxCell>
        <mxCell id="Hw76VazDHy7zFGiPtYa--46" style="edgeStyle=none;rounded=0;orthogonalLoop=1;jettySize=auto;html=1;exitX=0.5;exitY=0.5;exitDx=0;exitDy=0;exitPerimeter=0;entryX=0;entryY=0.5;entryDx=0;entryDy=0;endArrow=none;endFill=0;" edge="1" parent="1" source="Hw76VazDHy7zFGiPtYa--12" target="Hw76VazDHy7zFGiPtYa--41">
          <mxGeometry relative="1" as="geometry" />
        </mxCell>
        <mxCell id="Hw76VazDHy7zFGiPtYa--12" value="Technician&amp;nbsp;" style="shape=umlActor;verticalLabelPosition=bottom;verticalAlign=top;html=1;outlineConnect=0;" vertex="1" parent="1">
          <mxGeometry x="170" y="490" width="30" height="60" as="geometry" />
        </mxCell>
        <mxCell id="Hw76VazDHy7zFGiPtYa--13" value="System Administrator" style="shape=umlActor;verticalLabelPosition=bottom;verticalAlign=top;html=1;outlineConnect=0;" vertex="1" parent="1">
          <mxGeometry x="560" y="20" width="30" height="60" as="geometry" />
        </mxCell>
        <mxCell id="Hw76VazDHy7zFGiPtYa--14" value="imaging modality" style="ellipse;whiteSpace=wrap;html=1;" vertex="1" parent="1">
          <mxGeometry x="400" y="550" width="90" height="50" as="geometry" />
        </mxCell>
        <mxCell id="Hw76VazDHy7zFGiPtYa--17" value="View imaging" style="ellipse;whiteSpace=wrap;html=1;" vertex="1" parent="1">
          <mxGeometry x="400" y="450" width="90" height="30" as="geometry" />
        </mxCell>
        <mxCell id="Hw76VazDHy7zFGiPtYa--21" style="edgeStyle=none;rounded=0;orthogonalLoop=1;jettySize=auto;html=1;exitX=0.5;exitY=0.5;exitDx=0;exitDy=0;exitPerimeter=0;entryX=0.5;entryY=0.5;entryDx=0;entryDy=0;entryPerimeter=0;endArrow=none;endFill=0;" edge="1" parent="1" source="Hw76VazDHy7zFGiPtYa--19" target="Hw76VazDHy7zFGiPtYa--13">
          <mxGeometry relative="1" as="geometry" />
        </mxCell>
        <mxCell id="Hw76VazDHy7zFGiPtYa--19" value="Database" style="shape=umlActor;verticalLabelPosition=bottom;verticalAlign=top;html=1;outlineConnect=0;" vertex="1" parent="1">
          <mxGeometry x="740" y="180" width="30" height="60" as="geometry" />
        </mxCell>
        <mxCell id="Hw76VazDHy7zFGiPtYa--24" value="Update Order" style="ellipse;whiteSpace=wrap;html=1;" vertex="1" parent="1">
          <mxGeometry x="400" y="490" width="90" height="40" as="geometry" />
        </mxCell>
        <mxCell id="Hw76VazDHy7zFGiPtYa--33" style="edgeStyle=none;rounded=0;orthogonalLoop=1;jettySize=auto;html=1;exitX=0.5;exitY=0.5;exitDx=0;exitDy=0;exitPerimeter=0;entryX=1;entryY=0.5;entryDx=0;entryDy=0;endArrow=none;endFill=0;" edge="1" parent="1" source="Hw76VazDHy7zFGiPtYa--30" target="Hw76VazDHy7zFGiPtYa--14">
          <mxGeometry relative="1" as="geometry" />
        </mxCell>
        <mxCell id="Hw76VazDHy7zFGiPtYa--36" style="edgeStyle=none;rounded=0;orthogonalLoop=1;jettySize=auto;html=1;exitX=0.5;exitY=0.5;exitDx=0;exitDy=0;exitPerimeter=0;entryX=1;entryY=0.5;entryDx=0;entryDy=0;endArrow=none;endFill=0;" edge="1" parent="1" source="Hw76VazDHy7zFGiPtYa--30" target="Hw76VazDHy7zFGiPtYa--34">
          <mxGeometry relative="1" as="geometry" />
        </mxCell>
        <mxCell id="Hw76VazDHy7zFGiPtYa--30" value="Patient" style="shape=umlActor;verticalLabelPosition=bottom;verticalAlign=top;html=1;outlineConnect=0;" vertex="1" parent="1">
          <mxGeometry x="740" y="620" width="30" height="60" as="geometry" />
        </mxCell>
        <mxCell id="Hw76VazDHy7zFGiPtYa--40" style="edgeStyle=none;rounded=0;orthogonalLoop=1;jettySize=auto;html=1;exitX=0.5;exitY=0.5;exitDx=0;exitDy=0;exitPerimeter=0;entryX=0;entryY=0.5;entryDx=0;entryDy=0;endArrow=none;endFill=0;" edge="1" parent="1" source="Hw76VazDHy7zFGiPtYa--31" target="Hw76VazDHy7zFGiPtYa--38">
          <mxGeometry relative="1" as="geometry" />
        </mxCell>
        <mxCell id="Hw76VazDHy7zFGiPtYa--43" style="edgeStyle=none;rounded=0;orthogonalLoop=1;jettySize=auto;html=1;exitX=0.5;exitY=0.5;exitDx=0;exitDy=0;exitPerimeter=0;entryX=0;entryY=0.5;entryDx=0;entryDy=0;endArrow=none;endFill=0;" edge="1" parent="1" source="Hw76VazDHy7zFGiPtYa--31" target="Hw76VazDHy7zFGiPtYa--41">
          <mxGeometry relative="1" as="geometry" />
        </mxCell>
        <mxCell id="Hw76VazDHy7zFGiPtYa--44" style="edgeStyle=none;rounded=0;orthogonalLoop=1;jettySize=auto;html=1;exitX=0.5;exitY=0.5;exitDx=0;exitDy=0;exitPerimeter=0;entryX=0;entryY=0.5;entryDx=0;entryDy=0;endArrow=none;endFill=0;" edge="1" parent="1" source="Hw76VazDHy7zFGiPtYa--31" target="Hw76VazDHy7zFGiPtYa--42">
          <mxGeometry relative="1" as="geometry" />
        </mxCell>
        <mxCell id="Hw76VazDHy7zFGiPtYa--31" value="Receptionist" style="shape=umlActor;verticalLabelPosition=bottom;verticalAlign=top;html=1;outlineConnect=0;" vertex="1" parent="1">
          <mxGeometry x="200" y="860" width="30" height="60" as="geometry" />
        </mxCell>
        <mxCell id="Hw76VazDHy7zFGiPtYa--35" style="edgeStyle=none;rounded=0;orthogonalLoop=1;jettySize=auto;html=1;exitX=0.5;exitY=0.5;exitDx=0;exitDy=0;exitPerimeter=0;entryX=0;entryY=0.5;entryDx=0;entryDy=0;endArrow=none;endFill=0;" edge="1" parent="1" source="Hw76VazDHy7zFGiPtYa--32" target="Hw76VazDHy7zFGiPtYa--34">
          <mxGeometry relative="1" as="geometry" />
        </mxCell>
        <mxCell id="Hw76VazDHy7zFGiPtYa--39" style="edgeStyle=none;rounded=0;orthogonalLoop=1;jettySize=auto;html=1;exitX=0.5;exitY=0.5;exitDx=0;exitDy=0;exitPerimeter=0;entryX=0;entryY=0.5;entryDx=0;entryDy=0;endArrow=none;endFill=0;" edge="1" parent="1" source="Hw76VazDHy7zFGiPtYa--32" target="Hw76VazDHy7zFGiPtYa--38">
          <mxGeometry relative="1" as="geometry" />
        </mxCell>
        <mxCell id="Hw76VazDHy7zFGiPtYa--45" style="edgeStyle=none;rounded=0;orthogonalLoop=1;jettySize=auto;html=1;exitX=0.5;exitY=0.5;exitDx=0;exitDy=0;exitPerimeter=0;entryX=0;entryY=0.5;entryDx=0;entryDy=0;endArrow=none;endFill=0;" edge="1" parent="1" source="Hw76VazDHy7zFGiPtYa--32" target="Hw76VazDHy7zFGiPtYa--41">
          <mxGeometry relative="1" as="geometry" />
        </mxCell>
        <mxCell id="Hw76VazDHy7zFGiPtYa--49" style="edgeStyle=none;rounded=0;orthogonalLoop=1;jettySize=auto;html=1;exitX=0.5;exitY=0.5;exitDx=0;exitDy=0;exitPerimeter=0;entryX=0;entryY=1;entryDx=0;entryDy=0;endArrow=none;endFill=0;" edge="1" parent="1" source="Hw76VazDHy7zFGiPtYa--32" target="Hw76VazDHy7zFGiPtYa--5">
          <mxGeometry relative="1" as="geometry" />
        </mxCell>
        <mxCell id="Hw76VazDHy7zFGiPtYa--53" style="edgeStyle=none;rounded=0;orthogonalLoop=1;jettySize=auto;html=1;exitX=0.5;exitY=0.5;exitDx=0;exitDy=0;exitPerimeter=0;entryX=0;entryY=0.5;entryDx=0;entryDy=0;endArrow=none;endFill=0;" edge="1" parent="1" source="Hw76VazDHy7zFGiPtYa--32" target="Hw76VazDHy7zFGiPtYa--24">
          <mxGeometry relative="1" as="geometry" />
        </mxCell>
        <mxCell id="Hw76VazDHy7zFGiPtYa--32" value="Medical Assistant" style="shape=umlActor;verticalLabelPosition=bottom;verticalAlign=top;html=1;outlineConnect=0;" vertex="1" parent="1">
          <mxGeometry x="300" y="700" width="30" height="60" as="geometry" />
        </mxCell>
        <mxCell id="Hw76VazDHy7zFGiPtYa--34" value="Intake" style="ellipse;whiteSpace=wrap;html=1;" vertex="1" parent="1">
          <mxGeometry x="500" y="700" width="90" height="30" as="geometry" />
        </mxCell>
        <mxCell id="Hw76VazDHy7zFGiPtYa--38" value="Billing activities" style="ellipse;whiteSpace=wrap;html=1;" vertex="1" parent="1">
          <mxGeometry x="500" y="750" width="90" height="40" as="geometry" />
        </mxCell>
        <mxCell id="Hw76VazDHy7zFGiPtYa--41" value="View schedule" style="ellipse;whiteSpace=wrap;html=1;" vertex="1" parent="1">
          <mxGeometry x="490" y="850" width="90" height="40" as="geometry" />
        </mxCell>
        <mxCell id="Hw76VazDHy7zFGiPtYa--42" value="Update Schedule" style="ellipse;whiteSpace=wrap;html=1;" vertex="1" parent="1">
          <mxGeometry x="500" y="800" width="90" height="40" as="geometry" />
        </mxCell>
      </root>
    </mxGraphModel>
  </diagram>
</mxfile>
